# xmcd
#
# Track frame offsets:
#	150
#	10453
#	23863
#	35265
#	47054
#	56983
#	68169
#	80367
#	90464
#	101975
#	111306
#	123065
#	131817
#	143607
#	154764
#	166550
#	178005
#	186751
#	196419
#	206406
#	213605
#	221947
#	231079
#	242608
#	252103
#	265538
#	273917
#	289057
#	312071
#
# Disc length: 4254 seconds
#
# Revision: 0
# Processed by: cddbd v1.5.2PL0 Copyright (c) Steve Scherf et al.
# Submitted via: dBpowerAMP V4.0
#
DISCID=9e109c1d
DTITLE=Elvis Presley - Scotty and Bill
DYEAR=2006
DGENRE=Acoustic
TTITLE0=Baby let's play house
TTITLE1=Tomorrow night
TTITLE2=Blue moon
TTITLE3=I'm left you're right she's gone
TTITLE4=You're a heartbreaker
TTITLE5=I forgot to remember to forget
TTITLE6=I love you because
TTITLE7=Good rockin' tonight
TTITLE8=Just because
TTITLE9=Blue moon of kentucky
TTITLE10=Harbour lights
TTITLE11=That's all right mama
TTITLE12=Mystery train
TTITLE13=I dont't care if the sun don't shine
TTITLE14=Milk cow blues boogie
TTITLE15=Trying to get you
TTITLE16=Maybelline (live)
TTITLE17=Baby let's play house (live)
TTITLE18=Money honey (live)
TTITLE19=That's all right mama (live)
TTITLE20=Good rockin' tonight (live)
TTITLE21=Blue moon of kentucky (live)
TTITLE22=I was the one (live)
TTITLE23=Tweedle dee (live)
TTITLE24=I got a woman (live)
TTITLE25=Long tall sally (live)
TTITLE26=Interview - Mace born auto florida (1955)
TTITLE27=Interview - Texarkana (Elvis Presley talking to Bob Neal)
TTITLE28=Interview at Louisiana Hayride
EXTD=
EXTT0=
EXTT1=
EXTT2=
EXTT3=
EXTT4=
EXTT5=
EXTT6=
EXTT7=
EXTT8=
EXTT9=
EXTT10=
EXTT11=
EXTT12=
EXTT13=
EXTT14=
EXTT15=
EXTT16=
EXTT17=
EXTT18=
EXTT19=
EXTT20=
EXTT21=
EXTT22=
EXTT23=
EXTT24=
EXTT25=
EXTT26=
EXTT27=
EXTT28=
PLAYORDER=
